<svg xmlns="http://www.w3.org/2000/svg" xml:space="preserve" style="fill-rule:evenodd;clip-rule:evenodd;stroke-linejoin:round;stroke-miterlimit:2" viewBox="0 0 546 320"><path d="m1702.33 2191.49-3.4 18.57H1374.1l-44.28 241.43h44.08l-3.4 18.57h-52.19c-2.86 0-5.57-1.21-7.4-3.32-1.84-2.1-2.61-4.87-2.11-7.58l47.69-260c.81-4.43 4.82-7.67 9.51-7.67h336.33Z" style="fill:#1e1d2d" transform="matrix(1.10425 0 0 1.14872 -1445.07 -2517.407)"/><path d="m1702.33 2191.49-3.4 18.57H1374.1l-44.28 241.43h44.08l-3.4 18.57h-52.19c-2.86 0-5.57-1.21-7.4-3.32-1.84-2.1-2.61-4.87-2.11-7.58l47.69-260c.81-4.43 4.82-7.67 9.51-7.67h336.33Z" style="fill:#1e1d2d" transform="matrix(-1.10425 0 0 -1.14872 1990.509 2837.408)"/><path d="m404.068 85.33.028 16.742 11.308 40.423h12.768l-12.677-44.42c7.843-5.183 12.038-15.548 12.038-30.059 0-21.322-8.846-33.759-23.984-33.759h-25.444v108.238h11.673V51.136h13.771c7.387 0 11.764 6.071 11.764 16.88 0 10.698-4.173 17.021-11.245 17.314Z" style="fill:#1e1d2d" transform="matrix(2.3968 0 0 1.47822 -809.14 29.362)"/><path d="m404.068 85.33.028 16.742 11.308 40.423h12.768l-12.677-44.42c7.843-5.183 12.038-15.548 12.038-30.059 0-21.322-8.846-33.759-23.984-33.759h-25.444v108.238h11.673V51.136h13.771c7.387 0 11.764 6.071 11.764 16.88 0 10.698-4.173 17.021-11.245 17.314Z" style="fill:#1e1d2d" transform="matrix(2.3968 0 0 1.47822 -574.139 29.362)"/><path d="M422.514 124.727h-25.965l13.693-16.732c11.515-14.066 17.324-25.468 17.324-40.571 0-21.914-10.062-35.092-26.245-35.092-16.08 0-26.661 15.399-26.765 39.09h13.175c.104-13.919 5.291-22.21 13.59-22.21 7.987 0 12.655 6.959 12.655 19.249 0 10.365-3.423 17.472-13.693 29.91l-24.793 29.91v14.214l52.595-.148v-.668l-5.571-16.952Z" style="fill:#1e1d2d" transform="matrix(2.07366 0 0 1.45238 -557.599 33.042)"/></svg>